# xmcd
#
# Track frame offsets:
#	150
#	12014
#	28347
#	44825
#	56186
#	73458
#	95543
#	118976
#	134314
#	151196
#	158736
#	173026
#	191334
#	196682
#	213337
#	218205
#	222940
#	230943
#	244412
#	256523
#	261123
#	292703
#	308599
#	324977
#	339657
#	346290
#
# Disc length: 4626 seconds
#
# Revision: 5
# Processed by: cddbd v1.5.2PL0 Copyright (c) Steve Scherf et al.
# Submitted via: EasyCDDAExtractor 12.0.1.1
#
DISCID=8812101a
DTITLE=Rolv Wesenlund og Harald Heide Steen jr - Wesensteen [cd1]
DYEAR=1994
DGENRE=Humour
TTITLE0=Konsulent Balle Clorin ('supperådet')
TTITLE1=En vennskapsvisitt ('ubåtkapteinen')
TTITLE2=For de minste 1 ('dodraugen')
TTITLE3=vær og varsel
TTITLE4=Instant panorama ('se Norge på 2 1-2 minutt')
TTITLE5=Dimmefesten
TTITLE6=I disse krisetider
TTITLE7=I fredens tjeneste 1
TTITLE8=Polet er stengt
TTITLE9=Da jeg var på vei til kirken idag 1
TTITLE10=I fredens tjeneste 2
TTITLE11=Japansk diplomat
TTITLE12=Da jeg var på vei til kirken idag 2
TTITLE13=Sveitsisk uke
TTITLE14=Oscarhall
TTITLE15=Da jeg var på vei til kirken idag 3
TTITLE16=Du gamle Noreg
TTITLE17=Svensk rapsodi ('Styltornas natt')
TTITLE18=Nytt fra krisesenteret
TTITLE19=Nyheter på samisk
TTITLE20=Hengende hager
TTITLE21=Knepp igjen smekken
TTITLE22=kassettkurset
TTITLE23=Ti i baren
TTITLE24=Ola Bættu'utjen
TTITLE25=Distrikts-Norge
EXTD=
EXTT0=
EXTT1=
EXTT2=
EXTT3=
EXTT4=
EXTT5=
EXTT6=
EXTT7=
EXTT8=
EXTT9=
EXTT10=
EXTT11=
EXTT12=
EXTT13=
EXTT14=
EXTT15=
EXTT16=
EXTT17=
EXTT18=
EXTT19=
EXTT20=
EXTT21=
EXTT22=
EXTT23=
EXTT24=
EXTT25=
PLAYORDER=
